<?xml version="1.0" encoding="UTF-8" standalone="no"?>
<!-- Created with Inkscape (http://www.inkscape.org/) -->

<svg
   xmlns:dc="http://purl.org/dc/elements/1.1/"
   xmlns:cc="http://creativecommons.org/ns#"
   xmlns:rdf="http://www.w3.org/1999/02/22-rdf-syntax-ns#"
   xmlns:svg="http://www.w3.org/2000/svg"
   xmlns="http://www.w3.org/2000/svg"
   xmlns:sodipodi="http://sodipodi.sourceforge.net/DTD/sodipodi-0.dtd"
   xmlns:inkscape="http://www.inkscape.org/namespaces/inkscape"
   width="297mm"
   height="210mm"
   viewBox="0 0 1052.3622 744.09448"
   id="svg4187"
   version="1.1"
   inkscape:version="0.91 r13725"
   sodipodi:docname="logo.svg">
  <defs
     id="defs4189" />
  <sodipodi:namedview
     id="base"
     pagecolor="#ffffff"
     bordercolor="#666666"
     borderopacity="1.0"
     inkscape:pageopacity="0.0"
     inkscape:pageshadow="2"
     inkscape:zoom="1.1268682"
     inkscape:cx="508.78262"
     inkscape:cy="538.75266"
     inkscape:document-units="px"
     inkscape:current-layer="layer1"
     showgrid="true"
     inkscape:window-width="2147"
     inkscape:window-height="1192"
     inkscape:window-x="2091"
     inkscape:window-y="87"
     inkscape:window-maximized="0"
     inkscape:snap-bbox="true">
    <inkscape:grid
       type="xygrid"
       id="grid4735"
       spacingx="8.0000001"
       spacingy="8"
       empspacing="8" />
  </sodipodi:namedview>
  <metadata
     id="metadata4192">
    <rdf:RDF>
      <cc:Work
         rdf:about="">
        <dc:format>image/svg+xml</dc:format>
        <dc:type
           rdf:resource="http://purl.org/dc/dcmitype/StillImage" />
        <dc:title></dc:title>
      </cc:Work>
    </rdf:RDF>
  </metadata>
  <g
     inkscape:label="Layer 1"
     inkscape:groupmode="layer"
     id="layer1"
     transform="translate(0,-308.26772)">
    <path
       style="fill:#ece13b;fill-rule:evenodd;stroke:#000000;stroke-width:1px;stroke-linecap:butt;stroke-linejoin:miter;stroke-opacity:1;fill-opacity:1"
       d="m 512,428.3622 c 0,0 0,-16 -16,-16 -16,0 -96,0 -96,0 0,0 -16,0 -16,16 0,16 0,96 0,96 0,0 0,16 16,16 16,0 48,0 48,0 l -48,0 c 0,0 -16,0 -16,16 0,16 0,32 0,32 0,0 0,16 16,16 16,0 96,0 96,0 0,0 16,0 16,-16 0,-16 0,-96 0,-96 0,0 0,-16 -16,-16 -16,0 -48,0 -48,0 l 48,0 c 0,0 16,0 16,-16 0,-16 0,-32 0,-32 z"
       id="path4758"
       inkscape:connector-curvature="0" />
    <path
       style="fill:#6fc0f1;fill-rule:evenodd;stroke:#000000;stroke-width:1px;stroke-linecap:butt;stroke-linejoin:miter;stroke-opacity:1;fill-opacity:1"
       d="m 576,428.3622 c 0,0 0,-16 16,-16 16,0 96,0 96,0 0,0 16,0 16,16 0,16 0,64 0,64 0,0 0,16 -16,16 -16,0 -32,0 -32,0 0,0 -16,0 -16,16 0,16 0,64 0,64 0,0 0,16 -16,16 -16,0 -32,0 -32,0 0,0 -16,0 -16,-16 0,-16 0,-160 0,-160 z"
       id="path4760"
       inkscape:connector-curvature="0" />
  </g>
</svg>
